<svg xmlns="http://www.w3.org/2000/svg" viewBox="0 0 70.75 100.13"><defs><style>.cls-1{isolation:isolate;}.cls-2{fill:#67cfdf;mix-blend-mode:lighten;}.cls-3,.cls-4{fill:none;}.cls-3,.cls-4,.cls-5{stroke:#000;stroke-miterlimit:10;stroke-width:1.5px;}.cls-4,.cls-5{stroke-linecap:round;}.cls-5{fill:#fff;}</style></defs><title>logo</title><g class="cls-1"><g id="Layer_1" data-name="Layer 1"><path class="cls-2" d="M86,92.35v3.09c0,3.94-3.29,4.56-6.77,4.56H25.08c-3.19,0-5.6-.88-7.21-2.87a12.12,12.12,0,0,1-2.42-7.93,11.55,11.55,0,0,1,.4-3.12,13.19,13.19,0,0,1,1.06-2.69c0.44-.85,1.06-1.91,1.85-3.21s1.48-2.48,2.07-3.44L39.64,45.49l-1.16-1.82,3.08-1.84L58,14H26.07c-2.24,0-3.93-.14-5.06-1.52a7.46,7.46,0,0,1-1.7-5.14A8.18,8.18,0,0,1,21,1.93C22.14,0.49,23.83,0,26.07,0H67.25c5.33,0,8,3.35,8,10.24a19.15,19.15,0,0,1-1.33,7.83,98.52,98.52,0,0,1-5.38,9.53L33.95,85.24,34.52,86h44.7C82.71,86,86,88.41,86,92.35Z" transform="translate(-15.45 0.13)"/><path class="cls-3" d="M65,31.14" transform="translate(-15.45 0.13)"/><path class="cls-3" d="M53.88,38A12.53,12.53,0,1,1,66.41,25.43,13.75,13.75,0,0,1,66,29.49" transform="translate(-15.45 0.13)"/><path class="cls-3" d="M47.43,83.54c-8.09-3.1-14.37-10.2-14.37-19,0-2.9.6-8.13,1.63-10.65" transform="translate(-15.45 0.13)"/><path class="cls-4" d="M78.78,17" transform="translate(-15.45 0.13)"/><path class="cls-4" d="M41.59,23C45.17,7.54,65.73,1.64,75.9,12.33" transform="translate(-15.45 0.13)"/><path class="cls-3" d="M54.82,50.24C41.92,50.52,30,39.14,30,25.43A24.82,24.82,0,0,1,75.9,12.33" transform="translate(-15.45 0.13)"/><path class="cls-3" d="M37.57,43.27a30.63,30.63,0,1,1,17.24,56c-16.11,0-28-11.88-31.07-27.18" transform="translate(-15.45 0.13)"/><path class="cls-4" d="M64.27,81.65c-8.6,5.5-18.37,5.22-27.38,2.4-5.3-1.66-11.43-6.68-13.15-12" transform="translate(-15.45 0.13)"/><path class="cls-3" d="M64.27,39.45C76.62,44.34,78.4,54.9,77.59,61.63s-3.94,13.9-13.32,20" transform="translate(-15.45 0.13)"/><path class="cls-3" d="M54.16,50.24c10.54,0,17.38,8.11,17.38,17.47A17,17,0,0,1,54.6,84.66c-6.83,0-12-2.63-16.72-7.68" transform="translate(-15.45 0.13)"/><line class="cls-5" x1="19.24" y1="54.01" x2="8.38" y2="71.95"/><line class="cls-4" x1="60.45" y1="12.47" x2="50.54" y2="29.62"/></g></g></svg>